<?xml version="1.0" encoding="UTF-8"?>
<svg width="39px" height="36px" viewBox="0 0 39 36" version="1.1" xmlns="http://www.w3.org/2000/svg" xmlns:xlink="http://www.w3.org/1999/xlink">
    <!-- Generator: Sketch 42 (36781) - http://www.bohemiancoding.com/sketch -->
    <title>Cummins Logo Copy 2</title>
    <desc>Created with Sketch.</desc>
    <defs></defs>
    <g id="Page-1" stroke="none" stroke-width="1" fill="none" fill-rule="evenodd">
        <g id="Redirection-Modal" transform="translate(-422.000000, -262.000000)" fill="#FFFFFF">
            <path d="M459.078492,296.942808 C459.078492,296.443584 459.454055,296.067629 459.936508,296.067629 C460.413364,296.067629 460.788746,296.443584 460.788746,296.942808 C460.788746,297.450889 460.413364,297.823771 459.936508,297.823771 C459.454055,297.823771 459.078492,297.450889 459.078492,296.942808 L459.078492,296.942808 Z M459.936508,298 C460.510144,298 461,297.553554 461,296.942808 C461,296.337847 460.510144,295.891581 459.936508,295.891581 C459.357275,295.891581 458.867238,296.337847 458.867238,296.942808 C458.867238,297.553554 459.357275,298 459.936508,298 L459.936508,298 Z M459.712254,297.026494 L459.923327,297.026494 L460.245986,297.553554 L460.451462,297.553554 L460.105331,297.019084 C460.284265,296.995587 460.422031,296.901598 460.422031,296.68434 C460.422031,296.443584 460.278306,296.337847 459.990856,296.337847 L459.530251,296.337847 L459.530251,297.553554 L459.712254,297.553554 L459.712254,297.026494 Z M459.712254,296.869425 L459.712254,296.493651 L459.96287,296.493651 C460.091969,296.493651 460.228472,296.521486 460.228472,296.672591 C460.228472,296.860568 460.08908,296.869425 459.932175,296.869425 L459.712254,296.869425 Z M442.254014,275.254925 L457.861164,275.254925 L457.861164,262.00144 L453.403887,262.00144 L452.363868,262.734732 C452.284783,262.619596 452.193962,262.532114 452.085446,262.508617 C451.965194,262.482228 451.822733,262.510786 451.645424,262.634779 C451.454573,262.768532 451.416475,262.957955 451.552978,263.155331 C451.730467,263.406389 452.243616,263.024651 453.229287,262.709789 C453.725282,262.553261 454.179749,262.610739 454.568311,263.166357 C455.200448,264.070817 454.514324,264.896652 453.732504,265.444136 C452.896517,266.030119 451.963749,266.430836 451.243319,265.38702 L452.465161,264.53118 C452.51644,264.64704 452.630914,264.737956 452.767417,264.774647 C452.903739,264.810074 453.060645,264.801217 453.182522,264.716085 C453.434763,264.540037 453.552126,264.31591 453.399554,264.098652 C452.977046,263.49369 451.21118,265.268811 450.342872,264.028883 C449.817807,263.274986 450.357497,262.494699 450.964717,262.000717 L440.571747,262.00144 C440.571747,262.00144 432.243287,261.757611 426.948578,267.616539 C426.948578,267.616539 422,272.011593 422,280.033164 C422,280.423217 422.013181,280.790134 422.035751,281.16157 C422.037917,281.286467 422.117183,282.107964 422.172975,282.545553 C423.061686,288.992452 427.086344,292.624752 427.086344,292.624752 C432.695768,298.240756 440.467745,297.996927 440.467745,297.996927 L457.861164,297.996927 L457.861164,284.741815 L442.183777,284.741815 C442.183777,284.741815 436.95786,284.70675 436.95786,279.999545 C436.95786,275.359939 442.254014,275.254925 442.254014,275.254925 L442.254014,275.254925 Z M446.960823,264.953949 L447.245384,265.316528 C447.300996,264.771213 447.547459,264.395258 447.984592,264.089072 C448.714953,263.576653 449.589039,263.673715 450.114285,264.422371 L451.714397,266.710633 L450.428096,267.612201 L449.022987,265.603555 C448.776524,265.279113 448.442129,264.975277 448.037316,265.257785 C447.397956,265.707123 447.969967,266.352392 447.996148,266.393421 L449.369118,268.353627 L448.08408,269.255014 L446.306658,266.715875 C446.092516,266.410411 445.942832,266.212132 445.653938,265.870157 L446.960823,264.953949 Z M447.667711,269.54656 L446.382854,270.44867 L443.993699,267.035075 L445.27982,266.132964 L447.667711,269.54656 Z M444.241426,264.633122 L444.878076,265.544089 L443.578594,266.45596 L442.941221,265.544812 L444.241426,264.633122 Z M438.83459,270.649842 L439.251139,271.204195 L439.265764,271.193892 C439.176929,270.556757 439.50338,270.064763 440.014542,269.705798 C440.426577,269.41588 441.046978,269.30725 441.479055,269.622835 C441.424707,269.052397 441.734185,268.490091 442.237403,268.117932 C442.967041,267.605513 443.842571,267.702575 444.370525,268.456292 L445.966305,270.738589 L444.681628,271.641061 L443.279408,269.63603 C443.032945,269.313034 442.69855,269.010644 442.295904,269.293152 C441.654378,269.743394 442.224763,270.386313 442.249681,270.421558 L443.62247,272.381583 L442.335446,273.284597 L440.930517,271.276855 C440.684054,270.952233 440.350381,270.648396 439.946291,270.931808 C439.304584,271.380243 439.877317,272.024969 439.905304,272.065095 L441.276649,274.026023 L439.991069,274.928314 L438.214911,272.388994 C438.000046,272.082808 437.851266,271.883805 437.562191,271.541108 L438.83459,270.649842 Z M427.402503,283.743547 C426.059686,284.68018 424.218347,284.354293 423.283232,283.010797 C422.34902,281.667301 422.679804,279.818978 424.02244,278.88361 L425.77675,277.653986 L426.746171,279.047368 L425.182531,280.133117 C424.606909,280.536184 424.464629,281.330388 424.865831,281.908238 C425.269199,282.485364 426.062575,282.627612 426.6391,282.225269 L428.204726,281.127951 L429.169091,282.513199 L427.402503,283.743547 Z M431.863391,280.624389 L431.580275,280.260906 C431.524482,280.807124 431.277477,281.183079 430.841067,281.488361 C430.109261,281.999154 429.234995,281.905346 428.710833,281.155786 L427.110539,278.867524 L428.396841,277.966136 L429.801228,279.974602 C430.049135,280.29832 430.382808,280.602338 430.786177,280.319649 C431.427702,279.869588 430.855692,279.225765 430.826441,279.184555 L429.455819,277.223807 L430.741398,276.323142 L432.518278,278.862463 C432.731699,279.167745 432.880479,279.366025 433.170999,279.707999 L431.863391,280.624389 Z M435.873243,277.812501 L434.469759,275.804759 C434.222574,275.48104 433.888178,275.177023 433.485532,275.460435 C432.843104,275.90905 433.415114,276.553595 433.44292,276.594806 L434.815168,278.554831 L433.528866,279.456218 L431.753431,276.917621 C431.539288,276.611615 431.390327,276.413335 431.099988,276.07118 L432.373109,275.17865 L432.791103,275.732821 L432.804283,275.723422 C432.714726,275.086107 433.041899,274.59357 433.552158,274.235148 C433.965819,273.94541 434.584775,273.835877 435.017574,274.151462 C434.962504,273.581204 435.271982,273.019622 435.774297,272.646559 C436.506102,272.135044 437.380368,272.230298 437.908322,272.985822 L439.504102,275.26812 L438.218523,276.170411 L436.817024,274.16538 C436.570742,273.842384 436.237069,273.539994 435.834423,273.822683 C435.193439,274.272744 435.763283,274.915843 435.7882,274.951089 L437.160267,276.911837 L435.873243,277.812501 Z" id="Cummins-Logo-Copy-2"></path>
        </g>
    </g>
</svg>