<?xml version="1.0" encoding="UTF-8"?>
<svg width="15px" height="14px" viewBox="0 0 15 14" version="1.1" xmlns="http://www.w3.org/2000/svg" xmlns:xlink="http://www.w3.org/1999/xlink">
    <!-- Generator: Sketch 42 (36781) - http://www.bohemiancoding.com/sketch -->
    <title>Shape</title>
    <desc>Created with Sketch.</desc>
    <defs></defs>
    <g id="Page-1" stroke="none" stroke-width="1" fill="none" fill-rule="evenodd">
        <g id="Cummins-Home-Page-Cncpt-1" transform="translate(-976.000000, -4580.000000)" fill="#FFFFFF">
            <g id="Footer" transform="translate(0.000000, 4392.000000)">
                <g id="Social-Logos" transform="translate(976.000000, 186.000000)">
                    <path d="M13.1861378,4.66828345 C13.8195637,4.25446832 14.3055996,3.59830314 14.5337032,2.81665235 C13.940634,3.20077241 13.2852751,3.47856497 12.5860501,3.62895611 C12.0280738,2.97758045 11.2305888,2.57142857 10.3480037,2.57142857 C8.65477373,2.57142857 7.28264336,4.07055049 7.28264336,5.91930788 C7.28264336,6.18177395 7.30808567,6.43753469 7.36072495,6.68180056 C4.81298415,6.54194637 2.55388204,5.21045789 1.04050295,3.18353011 C0.77642927,3.6797251 0.625530022,4.25446832 0.625530022,4.86752777 C0.625530022,6.02850909 1.16683721,7.05346785 1.9897645,7.65503242 C1.48705945,7.63779013 1.01418332,7.48548317 0.600087707,7.23642777 L0.600087707,7.2776177 C0.600087707,8.90030942 1.65638244,10.2538297 3.0609737,10.5603594 C2.80304126,10.6389077 2.53282633,10.6781818 2.25208354,10.6781818 C2.05468627,10.6781818 1.86167561,10.6580658 1.67568351,10.6187917 C2.06521413,11.9483643 3.19783581,12.9177646 4.54013726,12.943628 C3.48998377,13.8421433 2.16786071,14.3766545 0.731685889,14.3766545 C0.484281308,14.3766545 0.23950869,14.3622859 0,14.330675 C1.35721591,15.2799593 2.96885497,15.8345865 4.70068704,15.8345865 C10.3418624,15.8345865 13.4247691,10.7327824 13.4247691,6.30821746 C13.4247691,6.16261584 13.4230145,6.01797213 13.4168733,5.87524423 C14.0160836,5.40299688 14.5372124,4.81292716 14.9469214,4.14143549 C14.396841,4.40773319 13.8055266,4.5878194 13.1861378,4.66828345 Z" id="Shape"></path>
                </g>
            </g>
        </g>
    </g>
</svg>