<?xml version="1.0" encoding="UTF-8"?>
<svg width="16px" height="14px" viewBox="0 0 16 14" version="1.1" xmlns="http://www.w3.org/2000/svg" xmlns:xlink="http://www.w3.org/1999/xlink">
    <!-- Generator: Sketch 42 (36781) - http://www.bohemiancoding.com/sketch -->
    <title>burger</title>
    <desc>Created with Sketch.</desc>
    <defs></defs>
    <g id="Page-1" stroke="none" stroke-width="1" fill="none" fill-rule="evenodd">
        <g id="Mobile-Nav" transform="translate(-303.000000, -55.000000)" fill="#FFFFFF">
            <g id="Group" transform="translate(0.000000, 4.000000)">
                <g id="Group-Copy-2" transform="translate(303.000000, 51.000000)">
                    <path d="M1.27897692e-13,0.89769821 C1.27897692e-13,0.401913179 0.395507813,0 0.906072617,0 L15.0939274,0 C15.5943375,0 16,0.398456656 16,0.89769821 C16,1.39348324 15.6044922,1.79539642 15.0939274,1.79539642 L0.906072617,1.79539642 C0.405662528,1.79539642 1.27897692e-13,1.39693976 1.27897692e-13,0.89769821 Z M1.27897692e-13,12.8670077 C1.27897692e-13,12.3712226 0.395507813,11.9693095 0.906072617,11.9693095 L15.0939274,11.9693095 C15.5943375,11.9693095 16,12.3677661 16,12.8670077 C16,13.3627927 15.6044922,13.7647059 15.0939274,13.7647059 L0.906072617,13.7647059 C0.405662528,13.7647059 1.27897692e-13,13.3662492 1.27897692e-13,12.8670077 Z M1.27897692e-13,6.88235294 C1.27897692e-13,6.38656791 0.395507813,5.98465473 0.906072617,5.98465473 L15.0939274,5.98465473 C15.5943375,5.98465473 16,6.38311139 16,6.88235294 C16,7.37813797 15.6044922,7.78005115 15.0939274,7.78005115 L0.906072617,7.78005115 C0.405662528,7.78005115 1.27897692e-13,7.38159449 1.27897692e-13,6.88235294 Z" id="burger"></path>
                </g>
            </g>
        </g>
    </g>
</svg>