<?xml version="1.0" encoding="UTF-8"?>
<svg width="15px" height="16px" viewBox="0 0 15 16" version="1.1" xmlns="http://www.w3.org/2000/svg" xmlns:xlink="http://www.w3.org/1999/xlink">
    <!-- Generator: Sketch 42 (36781) - http://www.bohemiancoding.com/sketch -->
    <title>Shape</title>
    <desc>Created with Sketch.</desc>
    <defs></defs>
    <g id="Page-1" stroke="none" stroke-width="1" fill="none" fill-rule="evenodd">
        <g id="Cummins-Home-Page-Cncpt-1" transform="translate(-1111.000000, -4579.000000)" fill="#FFFFFF">
            <g id="Footer" transform="translate(0.000000, 4392.000000)">
                <g id="Social-Logos" transform="translate(976.000000, 186.000000)">
                    <path d="M135.676167,6.45142245 L138.407366,6.45142245 L138.407366,16.1043533 L135.676167,16.1043533 L135.676167,6.45142245 Z M136.972147,5.24400995 L136.952374,5.24400995 C135.963705,5.24400995 135.322718,4.5060962 135.322718,3.5716481 C135.322718,2.61809248 135.982654,1.89473684 136.991097,1.89473684 C137.998716,1.89473684 138.618282,2.61627272 138.638055,3.56891845 C138.638055,4.50336656 137.998716,5.24400995 136.972147,5.24400995 L136.972147,5.24400995 Z M149.335456,16.1052632 L146.23845,16.1052632 L146.23845,11.1091049 C146.23845,9.80160544 145.754002,8.90992175 144.688711,8.90992175 C143.873883,8.90992175 143.420743,9.5113533 143.209827,10.0927675 C143.130733,10.3002204 143.143091,10.5904725 143.143091,10.8816346 L143.143091,16.1052632 L140.074921,16.1052632 C140.074921,16.1052632 140.114468,7.25575753 140.074921,6.45142245 L143.143091,6.45142245 L143.143091,7.96637483 C143.324347,7.30398124 144.304778,6.35861455 145.869347,6.35861455 C147.810434,6.35861455 149.335456,7.74800332 149.335456,10.7369634 L149.335456,16.1052632 L149.335456,16.1052632 Z" id="Shape"></path>
                </g>
            </g>
        </g>
    </g>
</svg>