<?xml version="1.0" encoding="UTF-8"?>
<svg width="15px" height="16px" viewBox="0 0 15 16" version="1.1" xmlns="http://www.w3.org/2000/svg" xmlns:xlink="http://www.w3.org/1999/xlink">
    <!-- Generator: Sketch 42 (36781) - http://www.bohemiancoding.com/sketch -->
    <title>Shape</title>
    <desc>Created with Sketch.</desc>
    <defs></defs>
    <g id="Page-1" stroke="none" stroke-width="1" fill="none" fill-rule="evenodd">
        <g id="Cummins-Home-Page-Cncpt-1" transform="translate(-1157.000000, -4579.000000)" fill="#FFFFFF">
            <g id="Footer" transform="translate(0.000000, 4392.000000)">
                <g id="Social-Logos" transform="translate(976.000000, 186.000000)">
                    <path d="M193.29187,1.89473684 L184.695391,1.89473684 C183.2025,1.89473684 181.987261,3.12629351 181.987261,4.6410915 L181.987261,13.3589085 C181.987261,14.8737065 183.2025,16.1052632 184.695391,16.1052632 L193.29187,16.1052632 C194.784761,16.1052632 196,14.8737065 196,13.3589085 L196,4.6410915 C196,3.12629351 194.784761,1.89473684 193.29187,1.89473684 L193.29187,1.89473684 Z M194.068799,3.53319181 L194.378582,3.53152077 L194.378582,5.9403253 L192.01072,5.94784498 L192.002481,3.53904045 L194.068799,3.53319181 L194.068799,3.53319181 Z M186.994047,7.54118186 C187.442244,6.91119968 188.170563,6.49845274 188.993631,6.49845274 C189.816698,6.49845274 190.545017,6.91119968 190.993214,7.54118186 C191.285695,7.95225776 191.46036,8.45524088 191.46036,9 C191.46036,10.3786082 190.353875,11.5007117 188.993631,11.5007117 C187.63421,11.5007117 186.527725,10.3786082 186.527725,9 C186.527725,8.45524088 186.70239,7.95225776 186.994047,7.54118186 L186.994047,7.54118186 Z M194.634813,13.3589085 C194.634813,14.1100411 194.032548,14.7208063 193.29187,14.7208063 L184.695391,14.7208063 C183.954713,14.7208063 183.352449,14.1100411 183.352449,13.3589085 L183.352449,7.54118186 L185.445132,7.54118186 C185.263876,7.99236273 185.162537,8.48448408 185.162537,9 C185.162537,11.1422736 186.881174,12.8860041 188.993631,12.8860041 C191.106911,12.8860041 192.825548,11.1422736 192.825548,9 C192.825548,8.48448408 192.722561,7.99236273 192.542953,7.54118186 L194.634813,7.54118186 L194.634813,13.3589085 L194.634813,13.3589085 Z" id="Shape"></path>
                </g>
            </g>
        </g>
    </g>
</svg>