<?xml version="1.0" encoding="UTF-8"?>
<svg width="16px" height="18px" viewBox="0 0 16 18" version="1.1" xmlns="http://www.w3.org/2000/svg" xmlns:xlink="http://www.w3.org/1999/xlink">
    <!-- Generator: Sketch 42 (36781) - http://www.bohemiancoding.com/sketch -->
    <title>Shape</title>
    <desc>Created with Sketch.</desc>
    <defs></defs>
    <g id="Page-1" stroke="none" stroke-width="1" fill="none" fill-rule="evenodd">
        <g id="Cummins-Home-Page-Cncpt-1" transform="translate(-1063.000000, -4578.000000)" fill="#FFFFFF">
            <g id="Footer" transform="translate(0.000000, 4392.000000)">
                <g id="Social-Logos" transform="translate(976.000000, 186.000000)">
                    <path d="M91.0704112,12.9723721 L91.0816992,10.0554828 L91.59611,10.0497668 L92.1099832,10.0429076 L92.1040705,9.59362776 L92.0976202,9.14377634 L90.612978,9.13748871 L89.1294108,9.13120107 L89.1294108,9.58734013 L89.1294108,10.0429076 L89.6314585,10.0497668 L90.1335063,10.0554828 L90.139419,12.9483648 C90.1421067,14.5391354 90.149632,15.8549651 90.1555448,15.8715416 C90.1636076,15.8949773 90.2678874,15.9006934 90.6124404,15.8955489 L91.0591232,15.8892613 L91.0704112,12.9723721 Z M99.6337113,12.7671667 C99.6127478,12.7088632 99.6417741,12.0349434 99.6697254,11.9371994 C99.7347658,11.707415 99.8729096,11.5953809 100.090607,11.5953809 C100.271753,11.5953809 100.386783,11.6696892 100.464186,11.8365973 C100.513101,11.9423438 100.517939,11.9875004 100.525464,12.3784767 L100.532989,12.8043208 L100.089532,12.8043208 C99.7084272,12.8043208 99.6449993,12.7991764 99.6337113,12.7671667 L99.6337113,12.7671667 Z M100.461499,15.909839 C100.895818,15.7800852 101.196294,15.4645604 101.309712,15.0192818 C101.328525,14.9432586 101.350564,14.7266211 101.358089,14.5385638 L101.37099,14.1967453 L100.952796,14.1967453 L100.534065,14.1967453 L100.523852,14.5031244 C100.512026,14.8512306 100.478162,14.9706956 100.358832,15.0821581 C100.231976,15.2004799 99.9986903,15.2090539 99.8471084,15.1004494 C99.6665003,14.9706956 99.6218857,14.7517717 99.6310236,14.0406978 L99.6374739,13.5365441 L100.503426,13.530828 L101.369377,13.5239688 L101.358089,12.7740259 C101.344114,11.9371994 101.327988,11.8103035 101.195757,11.5130701 C100.943658,10.9500413 100.245414,10.6659547 99.6654252,10.8905946 C99.2278804,11.0603606 98.9693312,11.3661681 98.865589,11.8394553 C98.8290373,12.0063633 98.8247372,12.1561232 98.8247372,13.3804965 C98.8247372,14.8820971 98.8295749,14.9432586 98.9736314,15.2507809 C99.2311055,15.7978048 99.8755972,16.0836063 100.461499,15.909839 L100.461499,15.909839 Z M97.032631,15.0547212 C97.0858459,15.0164238 97.120785,14.9632647 97.1481988,14.8803823 C97.1831379,14.7712062 97.186363,14.6323067 97.1815253,13.3444855 C97.1766876,12.0023621 97.1739999,11.9234809 97.1331481,11.835454 C97.0283308,11.6108141 96.7644064,11.5890932 96.5225205,11.7857246 L96.4429669,11.8497441 L96.4429669,13.3804965 L96.4429669,14.9112489 L96.5219829,14.9752684 C96.7009785,15.1204555 96.8971749,15.1507504 97.032631,15.0547212 L97.032631,15.0547212 Z M97.5567173,15.9189846 C97.6884107,15.8784008 97.8475179,15.7120644 97.9190087,15.5422984 C98.0566149,15.2170564 98.0571524,15.2090539 98.0571524,13.3804965 C98.0571524,11.8794675 98.0528522,11.6942681 98.0179131,11.5319329 C97.9044955,11.012346 97.6572343,10.7854197 97.2411905,10.8185726 C97.0084424,10.8380071 96.8251466,10.9363228 96.6052992,11.1621059 C96.5096199,11.25985 96.4241535,11.340446 96.4144781,11.340446 C96.4058777,11.340446 96.3978148,10.8431515 96.3978148,10.2361093 L96.3978148,9.13177268 L95.9914464,9.13177268 L95.585078,9.13177268 L95.585078,12.516233 L95.585078,15.901265 L95.9914464,15.901265 L96.3978148,15.901265 L96.3978148,15.6731954 C96.3978148,15.5217207 96.4064152,15.4451259 96.4230785,15.4451259 C96.4365166,15.4451259 96.5278957,15.5251503 96.6262626,15.623466 C96.942327,15.9395623 97.2159268,16.026446 97.5567173,15.9189846 L97.5567173,15.9189846 Z M93.231259,15.8966921 C93.3935913,15.8326726 93.5844125,15.6920583 93.7451322,15.5182911 C93.8187731,15.4382667 93.8924139,15.3731039 93.9085396,15.3731039 C93.9300406,15.3731039 93.937566,15.4382667 93.937566,15.6371844 L93.937566,15.901265 L94.3439343,15.901265 L94.7503027,15.901265 L94.7503027,13.3925001 L94.7503027,10.8843069 L94.3439343,10.8843069 L93.937566,10.8843069 L93.937566,12.8191825 L93.937566,14.7546297 L93.762333,14.9392574 C93.6236517,15.0861593 93.5655991,15.1307443 93.4795952,15.1558949 C93.3344637,15.1987651 93.2420095,15.1690417 93.1823443,15.0598656 C93.1371922,14.978698 93.1361172,14.9409722 93.1296669,12.9306451 L93.1237541,10.8843069 L92.7173857,10.8843069 L92.3120924,10.8843069 L92.3120924,13.0569693 C92.3120924,15.4239766 92.3142425,15.4754208 92.4389481,15.7034904 C92.5754793,15.9527092 92.8947688,16.0310188 93.231259,15.8966921 L93.231259,15.8966921 Z M93.5763496,17.9899017 C93.0485007,17.9801844 92.4238974,17.9647512 92.1879243,17.9556055 C90.6038401,17.8950156 89.5164283,17.8304245 89.2992685,17.7835531 C88.9896545,17.7172471 88.6434888,17.494322 88.4424547,17.2319563 C88.1210152,16.8118283 87.9490074,16.3019585 87.8656911,15.5171479 C87.6727199,13.6925916 87.6770201,11.5645143 87.8775167,9.8039776 C87.9656707,9.03231379 88.1844431,8.47500103 88.5515722,8.08631111 C88.7612067,7.86395761 88.9627783,7.7404914 89.2310029,7.66732623 C89.8126042,7.50899225 94.3632852,7.38323963 97.1315355,7.44840235 C98.7306704,7.48612814 100.458274,7.56500933 100.917319,7.6204548 C101.511284,7.69247676 101.928403,8.01943358 102.217053,8.63962264 C102.435288,9.10776536 102.504629,9.47244796 102.59332,10.5962191 C102.662661,11.4856331 102.679862,12.0400879 102.666961,13.0672581 C102.652448,14.2962042 102.578807,15.37882 102.468615,15.9864338 C102.352509,16.6289154 102.078372,17.1765109 101.723068,17.4731727 C101.449468,17.7023855 101.157593,17.8047024 100.698009,17.8321393 C100.561478,17.8407133 100.388933,17.8521454 100.314217,17.858433 C100.049755,17.8801539 98.6317659,17.9407438 97.8539682,17.9641796 C96.6982909,17.9984757 94.6761244,18.0104794 93.5763496,17.9899017 Z M92.1502369,6.84059617 C92.130886,6.8068716 92.1341112,4.83198384 92.153462,4.55247005 C92.1787257,4.19407508 92.1217481,3.91170328 91.8798621,3.19034052 C91.8013836,2.95655496 91.6594772,2.50270232 91.5648729,2.18260473 C90.8806044,-0.131815112 90.9166185,0.00365475812 90.9821965,0.00308315529 C91.4331794,-0.000918064496 91.9895171,0.00193994964 91.9959674,0.00879918356 C92.0002676,0.0133720062 92.1464742,0.578115599 92.3211696,1.26461059 C92.4964025,1.95053399 92.6420716,2.52156521 92.6458343,2.53414047 C92.6490595,2.54557253 92.7517266,2.14602215 92.8737446,1.64586968 C93.1290687,0.596406889 93.2725877,0.017373226 93.2779629,0.0122288005 C93.2892509,0.000796743984 93.4161067,-0.00148966732 93.831613,0.000796743984 L94.2911963,0.00365475812 L94.2809833,0.0819643454 C94.2729205,0.145412259 93.9590063,1.2657538 93.6305789,2.40381503 C93.5951023,2.52956765 93.5031856,2.85366645 93.4273947,3.12460619 C93.3516038,3.39497433 93.2602246,3.71621512 93.223673,3.83853812 L93.1575575,4.06146323 L93.1575575,5.4516013 C93.1575575,6.75542735 93.1548699,6.84288258 93.1183182,6.85317143 C93.0355395,6.87717875 92.16475,6.86574669 92.1502369,6.84059617 Z M98.0898807,6.92405018 C97.8630455,6.89204042 97.7302769,6.79886916 97.6394353,6.60738222 C97.5254802,6.36730903 97.5254802,6.36845223 97.5254802,3.9762944 L97.5254802,1.74418537 L97.9834509,1.74418537 L98.4408841,1.74418537 L98.4505595,3.80195554 C98.4607725,6.03692259 98.4580849,5.98490674 98.5838656,6.0186313 C98.6994333,6.04892625 98.8273641,5.98319193 98.9864713,5.81056788 L99.1391282,5.64537466 L99.145041,3.69449421 L99.1504162,1.74418537 L99.6078494,1.73732613 L100.065283,1.7316101 L100.065283,4.28610314 L100.065283,6.84116777 L100.00293,6.85488624 C99.9282139,6.87146272 99.2348075,6.87031952 99.178905,6.85317143 C99.145041,6.84345418 99.1396657,6.81030122 99.1396657,6.61024023 L99.1396657,6.37816948 L99.0095849,6.51306775 C98.7107213,6.82230488 98.3882067,6.96634879 98.0898807,6.92405018 L98.0898807,6.92405018 Z M95.7849764,5.94832416 C95.9419335,5.82142833 95.9430086,5.81056788 95.9510714,4.37412997 C95.9580592,3.25778965 95.9542966,3.06801751 95.9225826,2.91597116 C95.8795807,2.71019414 95.8043273,2.61302166 95.6570456,2.57015145 C95.466762,2.51642078 95.2926041,2.63188456 95.2313263,2.85309485 C95.1850992,3.02343249 95.1856368,5.55563301 95.2324014,5.72597066 C95.267878,5.85400969 95.3812956,5.99405238 95.4651494,6.01348688 C95.5742669,6.0380658 95.7081104,6.01062886 95.7855139,5.94832416 L95.7849764,5.94832416 Z M95.4264477,6.92290698 C95.0168541,6.87031952 94.6405871,6.61424145 94.4594414,6.26442052 C94.2750706,5.90831196 94.2578698,5.72196944 94.2686203,4.15349128 C94.2772207,2.93883527 94.2804458,2.8628121 94.3255978,2.68847324 C94.4336402,2.27406119 94.6427372,1.99168939 94.9668644,1.82078014 C95.4119345,1.58699459 95.8919437,1.61728954 96.3117502,1.90652057 C96.5794374,2.09000508 96.7417697,2.35637199 96.8288486,2.75249275 C96.8670129,2.92740322 96.8707755,3.06172988 96.8707755,4.28838955 C96.8707755,5.78027293 96.8643253,5.86658495 96.7202687,6.18954055 C96.582125,6.50106409 96.2692858,6.77543345 95.9430086,6.87203432 C95.798952,6.91376133 95.5490032,6.93891186 95.4264477,6.92290698 L95.4264477,6.92290698 Z" id="Shape"></path>
                </g>
            </g>
        </g>
    </g>
</svg>